<svg xmlns="http://www.w3.org/2000/svg" xmlns:xlink="http://www.w3.org/1999/xlink" width="212.962" height="131.037" viewBox="0 0 212.962 131.037"><defs><style>.a,.c{fill-rule:evenodd;}.a{opacity:0.8;fill:url(#a);}.b{fill:url(#b);}.c{opacity:0.675;fill:url(#c);}.d{fill:url(#d);}.e{fill:url(#e);}.f{fill:url(#f);}</style><linearGradient id="a" x1="0.523" y1="0.746" x2="0.523" y2="-0.176" gradientUnits="objectBoundingBox"><stop offset="0" stop-color="#dedede" stop-opacity="0"/><stop offset="1" stop-color="#a9a9a9" stop-opacity="0.302"/></linearGradient><linearGradient id="b" x1="0.448" y1="1" x2="0.448" gradientUnits="objectBoundingBox"><stop offset="0" stop-color="#fff" stop-opacity="0"/><stop offset="1" stop-color="#96a1c5" stop-opacity="0.373"/></linearGradient><linearGradient id="c" x1="0.5" y1="1" x2="0.5" y2="-0.197" gradientUnits="objectBoundingBox"><stop offset="0" stop-color="#fff" stop-opacity="0"/><stop offset="1" stop-color="#919191" stop-opacity="0.149"/></linearGradient><linearGradient id="d" x1="0.5" x2="0.5" y2="0.449" gradientUnits="objectBoundingBox"><stop offset="0" stop-color="#5389f5"/><stop offset="1" stop-color="#416fdc"/></linearGradient><linearGradient id="e" x1="0.633" y1="1" x2="0.633" y2="-0.053" gradientUnits="objectBoundingBox"><stop offset="0" stop-color="#dce9ff"/><stop offset="1" stop-color="#b6cfff"/></linearGradient><linearGradient id="f" x1="0.5" x2="0.5" y2="1" gradientUnits="objectBoundingBox"><stop offset="0" stop-color="#7ca5f7"/><stop offset="1" stop-color="#c4d6fc"/></linearGradient></defs><g transform="translate(-2.049 0.001)"><path class="a" d="M40.973,24.549q3.285-10.385,6.111-12.933c5.214-4.7,12.423-2.144,13.955-1.777C66.423,11.13,64.672,2.631,69.291.9q4.618-1.727,7.6,4.221Q79.527-.424,84.929.034c5.4.457,7.295,18.708,14.72,14.713s16.532-4.91,20.421,1.029c.841,1.285,1.163-.709,6.88-7.514s11.419-9.807,23.115-5.843q7.977,2.7,13.125,14.639,0,17.039,25.067,20.17c25.068,3.13,5.61,30.081-25.067,37.973S61.881,87.356,23.552,67.412q-38.328-19.94,17.419-42.864Z" transform="translate(3.836 0)"/><ellipse class="b" cx="46.221" cy="10.699" rx="46.221" ry="10.699" transform="translate(61.444 103.531)"/><path class="c" d="M185.7,87.468c-34.753,8.717-153.377-1.254-166-5.807Q10.479,78.334,3.081,69.149a4.661,4.661,0,0,1,3.63-7.585H214Q220.453,78.751,185.7,87.468Z" transform="translate(0 40.111)"/><g transform="translate(71.464 65.653)"><path class="d" d="M71.669,19.95,55.863,1.466A4.02,4.02,0,0,0,52.829.046H18.841a4.023,4.023,0,0,0-3.034,1.42L0,19.95V30.1H71.669V19.95Z" transform="translate(0 -0.046)"/><path class="e" d="M65.424,25.291,51.589,9.192A3.528,3.528,0,0,0,48.91,8H19.226a3.528,3.528,0,0,0-2.679,1.2L2.712,25.291v8.842H65.424V25.291Z" transform="translate(1.767 5.133)"/><path class="f" d="M71.669,33.83a4.613,4.613,0,0,1-1.635,3.524l-.2.165a4.555,4.555,0,0,1-2.758.925H4.6a4.529,4.529,0,0,1-1.6-.291l-.248-.1A4.628,4.628,0,0,1,0,33.828V12.165H17.389a3.489,3.489,0,0,1,3.468,3.5v.025a3.477,3.477,0,0,0,3.486,3.467H47.326a3.49,3.49,0,0,0,3.486-3.48,3.5,3.5,0,0,1,3.468-3.509H71.671Z" transform="translate(0 7.85)"/></g></g></svg>