<?xml version="1.0" encoding="utf-8"?>
<!-- Generator: Adobe Illustrator 23.0.3, SVG Export Plug-In . SVG Version: 6.00 Build 0)  -->
<svg version="1.1" id="Layer_1" xmlns="http://www.w3.org/2000/svg" xmlns:xlink="http://www.w3.org/1999/xlink" x="0px" y="0px"
	 viewBox="0 0 192.64 34" style="enable-background:new 0 0 192.64 34;" xml:space="preserve">
<style type="text/css">
	.st0{fill:#FFFFFF;}
</style>
<g id="XMLID_67_">
	<path id="XMLID_112_" class="st0" d="M164.14,23.29C164.14,23.29,164.15,23.29,164.14,23.29c0.61-0.07,1.18-0.25,1.71-0.51
		c2.05-0.97,3.47-3.15,3.47-5.67c0-1.71-0.67-3.27-1.73-4.41c-1.07-1.12-2.54-1.82-4.19-1.82h-16.5c-0.9,0-1.63,0.77-1.63,1.71
		v19.63c0,0.95,0.73,1.71,1.63,1.71h0.65c0.9,0,1.63-0.77,1.63-1.71v-7.17c0-0.95,0.73-1.71,1.63-1.71h6.56
		c1.42,0,2.66,0.79,3.34,1.97l0.09,0.18l2.1,4.32l1.55,3.19c0.28,0.57,0.84,0.93,1.45,0.93h0.74c1.22,0,2.01-1.35,1.45-2.49
		l-0.79-1.63L164.14,23.29z M149.19,17.53v-0.82c0-0.95,0.73-1.71,1.63-1.71h12.59c0.69,0,1.15,0.34,1.41,0.6
		c0.22,0.25,0.6,0.77,0.6,1.52c0,0.84-0.46,1.59-1.19,1.93c-0.26,0.14-0.53,0.19-0.82,0.19h-12.59
		C149.92,19.24,149.19,18.47,149.19,17.53z"/>
	<path id="XMLID_110_" class="st0" d="M142.71,12.59v9.5c0,6.21-4.84,11.56-11.13,11.85c-6.71,0.31-12.26-4.97-12.26-11.52v-9.82
		c0-0.95,0.78-1.71,1.74-1.71h0.69c0.96,0,1.74,0.77,1.74,1.71v9.56c0,3.95,3.02,7.41,7.02,7.67c4.38,0.29,8.04-3.15,8.04-7.41
		v-9.82c0-0.95,0.78-1.71,1.74-1.71h0.69C141.93,10.87,142.71,11.64,142.71,12.59z"/>
	<path id="XMLID_107_" class="st0" d="M17.04,10.87h-0.65h-4.21h-0.65C5.16,10.87,0,16.03,0,22.4c0,6.36,5.16,11.52,11.52,11.52
		h0.65h4.21h0.65c6.36,0,11.52-5.16,11.52-11.52C28.56,16.03,23.4,10.87,17.04,10.87z M17.04,29.81h-4.86v0h-0.65
		c-4.09,0-7.42-3.33-7.42-7.42c0-4.09,3.33-7.42,7.42-7.42h4.86v0h0.65c4.09,0,7.42,3.33,7.42,7.42
		C24.45,26.49,21.13,29.81,17.04,29.81z"/>
	<path id="XMLID_104_" class="st0" d="M77.47,10.86h-0.65h-4.21h-0.65c-6.36,0-11.52,5.16-11.52,11.53
		c0,6.37,5.16,11.53,11.52,11.53h0.65h4.21h0.65c6.36,0,11.52-5.16,11.52-11.53C88.99,16.03,83.83,10.86,77.47,10.86z M77.47,29.82
		h-4.86v0h-0.65c-4.09,0-7.42-3.33-7.42-7.43c0-4.1,3.33-7.42,7.42-7.42h4.86v0h0.65c4.09,0,7.42,3.33,7.42,7.42
		C84.88,26.49,81.56,29.82,77.47,29.82z"/>
	<path id="XMLID_103_" class="st0" d="M114.84,21.74c-1.33-1.47-3.24-2.38-5.38-2.38h-11.7c-1.16,0-2.11-0.94-2.11-2.11v-0.12
		c0-1.17,0.94-2.11,2.11-2.11h15.8c0.94,0,1.71-0.77,1.71-1.71v-0.7c0-0.95-0.77-1.71-1.71-1.71h-15.8c-3.43,0-6.21,2.78-6.21,6.22
		v0.14c0,1.32,0.41,2.53,1.11,3.53c0.23,0.36,0.51,0.67,0.81,0.96c1.11,1.08,2.61,1.74,4.3,1.74h11.61c1.52,0,2.9,1.03,3.21,2.52
		c0.42,2.04-1.15,3.84-3.12,3.84H94.18c-0.95,0-1.71,0.77-1.71,1.71v0.68c0,0.95,0.77,1.71,1.71,1.71h15.06
		c3.69,0,6.98-2.65,7.45-6.32c0.27-2.11-0.37-4.08-1.58-5.57C115.03,21.94,114.95,21.83,114.84,21.74z"/>
	<path id="XMLID_102_" class="st0" d="M46.38,10.87H32.83c-0.95,0-1.71,0.77-1.71,1.71v2.4h4.11v0h11.15c4.08,0,7.41,3.33,7.41,7.41
		c0,4.09-3.33,7.42-7.41,7.42H35.23V18.48h-4.11v13.72c0,0.95,0.77,1.71,1.71,1.71h13.54c3.18,0,6.05-1.29,8.13-3.38
		c0.23-0.23,0.45-0.48,0.66-0.73c1.71-2,2.72-4.6,2.72-7.42C57.89,16.02,52.73,10.87,46.38,10.87z"/>
	<g id="XMLID_70_">
		<g id="XMLID_72_">
			<path id="XMLID_99_" class="st0" d="M136.52,5.02h-2.22c-0.04,0-0.08,0.01-0.11,0.04v0.09V5.5c0,0.28,0.09,0.51,0.28,0.68
				c0.19,0.15,0.45,0.23,0.79,0.23h0.4l0.23-0.04c0.17-0.02,0.37-0.07,0.6-0.16l0.12-0.02c0.1,0,0.15,0.07,0.15,0.2v0.9
				c0,0.06-0.01,0.11-0.04,0.14l-0.16,0.1c-0.2,0.07-0.45,0.13-0.73,0.18l-0.67,0.05c-0.66,0-1.17-0.12-1.54-0.35
				c-0.61-0.37-0.92-0.99-0.92-1.86V3.69c0-0.57,0.11-1.04,0.34-1.4c0.34-0.53,0.92-0.8,1.74-0.8c0.5,0,0.91,0.1,1.23,0.31
				c0.55,0.35,0.82,0.98,0.82,1.89v1.03c0,0.13-0.03,0.21-0.08,0.24L136.52,5.02z M134.3,3.81h0.93c0.04,0,0.08-0.04,0.11-0.11V3.46
				c0-0.21-0.03-0.37-0.08-0.48c-0.09-0.2-0.25-0.29-0.48-0.29c-0.17,0-0.31,0.07-0.44,0.2c-0.1,0.12-0.15,0.31-0.15,0.57V3.7
				C134.19,3.77,134.23,3.8,134.3,3.81z"/>
			<path id="XMLID_96_" class="st0" d="M141.54,3.22v4.06l-0.03,0.24c-0.05,0.1-0.15,0.14-0.3,0.14h-0.92
				c-0.14,0-0.21-0.06-0.21-0.18c0-0.04-0.03-0.07-0.09-0.08l-0.1,0.06c-0.08,0.08-0.22,0.15-0.41,0.2
				c-0.19,0.05-0.36,0.08-0.49,0.08c-0.41,0-0.76-0.16-1.05-0.49c-0.29-0.33-0.44-0.8-0.44-1.42c0-0.74,0.24-1.33,0.72-1.74
				c0.28-0.24,0.76-0.49,1.43-0.73l0.27-0.1c0.07-0.02,0.1-0.08,0.11-0.17c0-0.14-0.07-0.24-0.2-0.31c-0.13-0.07-0.3-0.1-0.5-0.1
				l-0.47,0.03l-0.33,0.09l-0.21,0.07l-0.26,0.08c-0.14,0-0.21-0.07-0.21-0.2V2.07c0-0.12,0.08-0.23,0.24-0.35
				c0.26-0.15,0.72-0.23,1.37-0.23c0.82,0,1.39,0.19,1.73,0.57C141.43,2.32,141.54,2.71,141.54,3.22z M140.05,6.02v-1.4
				c-0.01-0.02-0.01-0.04-0.02-0.05c-0.01-0.01-0.01-0.02-0.02-0.03c-0.05,0-0.09,0.01-0.11,0.02l-0.19,0.12
				c-0.22,0.13-0.37,0.26-0.46,0.39c-0.12,0.18-0.19,0.4-0.19,0.67c0,0.19,0.04,0.35,0.12,0.48c0.08,0.13,0.2,0.19,0.36,0.19
				s0.28-0.04,0.37-0.11C140,6.24,140.05,6.14,140.05,6.02z"/>
			<path id="XMLID_94_" class="st0" d="M143.91,4.58v2.78c0,0.13-0.03,0.21-0.08,0.24l-0.23,0.07h-0.88c-0.12,0-0.2-0.02-0.24-0.07
				l-0.07-0.24V1.88c0-0.12,0.02-0.19,0.06-0.22c0.04-0.03,0.12-0.06,0.24-0.08h0.99c0.13,0,0.2,0.05,0.2,0.15v0.12l0.06,0.09
				l0.15-0.1l0.37-0.24c0.2-0.07,0.4-0.11,0.62-0.11c0.12,0,0.2,0.02,0.24,0.06c0.04,0.01,0.07,0.08,0.09,0.21v1.06
				c0,0.09-0.03,0.15-0.09,0.17l-0.18,0.04h-0.21c-0.15,0-0.29,0.02-0.4,0.07c-0.11,0.04-0.22,0.12-0.32,0.22
				c-0.15,0.15-0.25,0.33-0.3,0.53L143.91,4.58z"/>
			<path id="XMLID_92_" class="st0" d="M145.96,7.36V1.88c0-0.12,0.02-0.19,0.06-0.22c0.04-0.03,0.12-0.06,0.25-0.08h0.97
				c0.04,0,0.08,0.02,0.13,0.06c0.05,0.04,0.08,0.09,0.08,0.15c0,0.07,0.03,0.1,0.08,0.11l0.1-0.05l0.33-0.22
				c0.19-0.09,0.4-0.13,0.63-0.13c0.4,0,0.72,0.12,0.95,0.35c0.3,0.28,0.45,0.71,0.45,1.28v4.24c0,0.13-0.03,0.21-0.08,0.24
				l-0.23,0.07h-0.88c-0.12,0-0.2-0.02-0.24-0.07l-0.07-0.24V3.44c0-0.15-0.05-0.27-0.14-0.37c-0.09-0.1-0.22-0.15-0.38-0.15
				c-0.22,0-0.38,0.1-0.47,0.31c-0.04,0.11-0.07,0.28-0.07,0.5v3.63c0,0.13-0.03,0.21-0.08,0.24l-0.23,0.07h-0.88
				c-0.12,0-0.2-0.02-0.24-0.07L145.96,7.36z"/>
			<path id="XMLID_90_" class="st0" d="M152.56,6.39v0.97c0,0.13-0.03,0.21-0.08,0.24l-0.23,0.07h-0.98c-0.12,0-0.2-0.02-0.24-0.07
				l-0.07-0.24V6.39c0-0.12,0.02-0.19,0.06-0.22c0.04-0.03,0.12-0.06,0.25-0.08h0.98c0.13,0,0.21,0.03,0.24,0.08L152.56,6.39z"/>
			<path id="XMLID_87_" class="st0" d="M158.32,0.31v1.44v0.08c0.07,0.01,0.2-0.05,0.37-0.16c0.18-0.11,0.41-0.17,0.69-0.17
				c0.48,0,0.84,0.13,1.07,0.38c0.3,0.36,0.45,0.99,0.45,1.88v1.95c0,0.58-0.07,1.02-0.2,1.33c-0.22,0.48-0.65,0.72-1.28,0.72
				c-0.23,0-0.43-0.03-0.6-0.1l-0.48-0.21l-0.06,0.02l-0.08,0.05l-0.06,0.07c-0.04,0.04-0.11,0.07-0.19,0.08h-0.83
				c-0.12,0-0.2-0.02-0.24-0.07l-0.07-0.24V0.31c0-0.12,0.02-0.19,0.06-0.22c0.04-0.03,0.12-0.06,0.25-0.08h0.88
				c0.13,0,0.21,0.03,0.24,0.08L158.32,0.31z M158.32,3.55V5.7c0,0.19,0.03,0.34,0.08,0.45c0.1,0.18,0.25,0.27,0.46,0.27
				c0.22,0,0.37-0.09,0.46-0.27c0.02-0.07,0.04-0.14,0.06-0.21c0.01-0.07,0.02-0.15,0.02-0.24V3.55c0-0.19-0.03-0.34-0.08-0.45
				c-0.09-0.18-0.25-0.27-0.46-0.27c-0.22,0-0.37,0.09-0.46,0.27c-0.02,0.07-0.04,0.13-0.05,0.21S158.32,3.46,158.32,3.55z"/>
			<path id="XMLID_84_" class="st0" d="M165.54,5.02h-2.22c-0.04,0-0.08,0.01-0.11,0.04v0.09V5.5c0,0.28,0.09,0.51,0.28,0.68
				c0.19,0.15,0.45,0.23,0.79,0.23h0.4l0.23-0.04c0.17-0.02,0.37-0.07,0.6-0.16l0.12-0.02c0.1,0,0.15,0.07,0.15,0.2v0.9
				c0,0.06-0.01,0.11-0.04,0.14l-0.16,0.1c-0.2,0.07-0.45,0.13-0.73,0.18l-0.67,0.05c-0.66,0-1.17-0.12-1.54-0.35
				c-0.61-0.37-0.92-0.99-0.92-1.86V3.69c0-0.57,0.11-1.04,0.34-1.4c0.34-0.53,0.92-0.8,1.74-0.8c0.5,0,0.91,0.1,1.23,0.31
				c0.55,0.35,0.82,0.98,0.82,1.89v1.03c0,0.13-0.03,0.21-0.08,0.24L165.54,5.02z M163.32,3.81h0.93c0.04,0,0.08-0.04,0.11-0.11
				V3.46c0-0.21-0.03-0.37-0.08-0.48c-0.09-0.2-0.25-0.29-0.48-0.29c-0.17,0-0.31,0.07-0.44,0.2c-0.1,0.12-0.15,0.31-0.15,0.57V3.7
				C163.21,3.77,163.25,3.8,163.32,3.81z"/>
			<path id="XMLID_82_" class="st0" d="M169.74,7.22V6.51c0-0.18,0.05-0.26,0.16-0.26l0.3,0.08l0.56,0.12l0.53,0.05
				c0.22,0,0.38-0.04,0.49-0.13c0.11-0.09,0.16-0.21,0.16-0.36c0-0.2-0.15-0.41-0.45-0.64l-0.46-0.32c-0.38-0.27-0.65-0.5-0.82-0.7
				c-0.31-0.35-0.46-0.75-0.46-1.21c0-0.4,0.12-0.76,0.36-1.06c0.33-0.39,0.85-0.59,1.56-0.59c0.55,0,0.96,0.05,1.22,0.14
				c0.26,0.09,0.39,0.23,0.39,0.42v0.69v0.1c-0.02,0.09-0.09,0.13-0.21,0.13c-0.35,0-0.6-0.05-0.74-0.14
				c-0.1-0.05-0.27-0.08-0.49-0.08c-0.17,0-0.3,0.03-0.37,0.1c-0.07,0.07-0.11,0.16-0.11,0.26c0,0.17,0.18,0.38,0.53,0.65l0.49,0.33
				c0.37,0.26,0.65,0.51,0.82,0.76c0.23,0.32,0.35,0.7,0.35,1.14c0,0.54-0.2,0.97-0.59,1.3c-0.19,0.15-0.41,0.27-0.67,0.35
				c-0.25,0.08-0.54,0.12-0.86,0.12c-0.71,0-1.19-0.07-1.45-0.22C169.81,7.46,169.74,7.35,169.74,7.22z"/>
			<path id="XMLID_80_" class="st0" d="M174.17,7.36V1.88c0-0.12,0.02-0.19,0.06-0.22c0.04-0.03,0.12-0.06,0.25-0.08h0.97
				c0.04,0,0.08,0.02,0.13,0.06c0.05,0.04,0.08,0.09,0.08,0.15c0,0.05,0.02,0.09,0.07,0.11l0.11-0.05c0.14-0.12,0.3-0.21,0.47-0.28
				l0.24-0.07h0.25c0.22,0,0.41,0.03,0.57,0.1c0.13,0.06,0.26,0.15,0.42,0.28c0.08,0.07,0.14,0.1,0.17,0.1l0.2-0.1
				c0.18-0.13,0.38-0.24,0.58-0.32l0.27-0.07h0.33c0.4,0,0.72,0.12,0.95,0.35c0.3,0.28,0.45,0.71,0.45,1.28v4.24
				c0,0.13-0.03,0.21-0.08,0.24l-0.23,0.07h-0.88c-0.1,0-0.17-0.02-0.22-0.05c-0.06-0.04-0.08-0.12-0.08-0.25V3.44
				c0-0.15-0.05-0.27-0.14-0.37s-0.22-0.15-0.38-0.15c-0.22,0-0.38,0.1-0.47,0.31c-0.04,0.11-0.07,0.28-0.07,0.5v3.63
				c0,0.13-0.03,0.21-0.08,0.24l-0.23,0.07h-0.88c-0.12,0-0.2-0.02-0.24-0.07l-0.07-0.24V3.44c0-0.15-0.05-0.27-0.14-0.37
				c-0.09-0.1-0.22-0.15-0.38-0.15c-0.22,0-0.38,0.1-0.47,0.31c-0.04,0.11-0.07,0.28-0.07,0.5v3.63c0,0.13-0.03,0.21-0.08,0.24
				l-0.23,0.07h-0.88c-0.12,0-0.2-0.02-0.24-0.07L174.17,7.36z"/>
			<path id="XMLID_77_" class="st0" d="M185.51,3.22v4.06l-0.03,0.24c-0.05,0.1-0.15,0.14-0.3,0.14h-0.92
				c-0.14,0-0.21-0.06-0.21-0.18c0-0.04-0.03-0.07-0.09-0.08l-0.1,0.06c-0.08,0.08-0.22,0.15-0.41,0.2
				c-0.19,0.05-0.36,0.08-0.49,0.08c-0.41,0-0.76-0.16-1.05-0.49c-0.29-0.33-0.44-0.8-0.44-1.42c0-0.74,0.24-1.33,0.72-1.74
				c0.28-0.24,0.76-0.49,1.43-0.73l0.27-0.1c0.07-0.02,0.1-0.08,0.11-0.17c0-0.14-0.07-0.24-0.2-0.31s-0.3-0.1-0.5-0.1l-0.47,0.03
				l-0.33,0.09l-0.21,0.07l-0.26,0.08c-0.14,0-0.21-0.07-0.21-0.2V2.07c0-0.12,0.08-0.23,0.24-0.35c0.26-0.15,0.72-0.23,1.37-0.23
				c0.82,0,1.39,0.19,1.73,0.57C185.4,2.32,185.51,2.71,185.51,3.22z M184.02,6.02v-1.4C184.01,4.6,184,4.58,184,4.57
				c-0.01-0.01-0.01-0.02-0.02-0.03c-0.05,0-0.09,0.01-0.11,0.02l-0.19,0.12c-0.22,0.13-0.37,0.26-0.46,0.39
				c-0.12,0.18-0.19,0.4-0.19,0.67c0,0.19,0.04,0.35,0.12,0.48c0.08,0.13,0.2,0.19,0.36,0.19s0.28-0.04,0.37-0.11
				C183.97,6.24,184.01,6.14,184.02,6.02z"/>
			<path id="XMLID_75_" class="st0" d="M187.87,4.58v2.78c0,0.13-0.03,0.21-0.08,0.24l-0.23,0.07h-0.88c-0.12,0-0.2-0.02-0.24-0.07
				l-0.07-0.24V1.88c0-0.12,0.02-0.19,0.06-0.22c0.04-0.03,0.12-0.06,0.24-0.08h0.99c0.13,0,0.2,0.05,0.2,0.15v0.12l0.06,0.09
				l0.15-0.1l0.37-0.24c0.2-0.07,0.4-0.11,0.62-0.11c0.12,0,0.2,0.02,0.24,0.06c0.04,0.01,0.07,0.08,0.09,0.21v1.06
				c0,0.09-0.03,0.15-0.09,0.17l-0.18,0.04h-0.21c-0.15,0-0.29,0.02-0.4,0.07c-0.11,0.04-0.22,0.12-0.32,0.22
				c-0.15,0.15-0.25,0.33-0.3,0.53L187.87,4.58z"/>
			<path id="XMLID_73_" class="st0" d="M190.29,0.46l1.08-0.36h0.11c0.09,0,0.13,0.06,0.13,0.19v1.23c0,0.09,0.05,0.13,0.14,0.14
				h0.43c0.09,0,0.16,0.02,0.22,0.05c0.06,0.04,0.09,0.12,0.09,0.25v0.51c0,0.13-0.03,0.21-0.08,0.24l-0.23,0.07h-0.45
				c-0.06,0-0.1,0.04-0.12,0.12v2.98c0,0.21,0.03,0.36,0.09,0.45c0.06,0.09,0.19,0.13,0.38,0.13h0.19l0.14-0.03
				c0.09,0,0.13,0.05,0.13,0.16v0.83c0,0.11-0.05,0.19-0.15,0.24c-0.1,0.05-0.3,0.08-0.6,0.08c-0.6,0-1.03-0.11-1.28-0.32
				c-0.26-0.22-0.38-0.58-0.38-1.1v-3.4c0-0.04-0.01-0.08-0.04-0.11l-0.1-0.03h-0.18c-0.08,0-0.14-0.02-0.18-0.05
				c-0.04-0.04-0.06-0.12-0.06-0.25V1.97c0-0.13,0.01-0.21,0.04-0.24c0.02-0.03,0.09-0.05,0.19-0.07h0.18h0.04
				c0.07-0.02,0.1-0.07,0.1-0.14V0.7C190.12,0.59,190.17,0.51,190.29,0.46z"/>
		</g>
		<path id="XMLID_71_" class="st0" d="M131.08,22.42L131.08,22.42c-0.41,0-0.74-0.33-0.74-0.74V0.74c0-0.41,0.33-0.74,0.74-0.74l0,0
			c0.41,0,0.74,0.33,0.74,0.74v20.93C131.83,22.08,131.49,22.42,131.08,22.42z"/>
	</g>
	<path id="XMLID_69_" class="st0" d="M190.76,10.89h-0.95c-0.58,0-1.13,0.25-1.48,0.67l-0.72,0.85v0l-5.67,6.7l-6.38-7.54
		c-0.35-0.42-0.9-0.67-1.48-0.67h-0.95c-1.56,0-2.44,1.63-1.48,2.75l7.45,8.8l0.02,0.01l0.6,0.7v9.08c0,0.94,0.84,1.71,1.87,1.71
		h0.76c1.04,0,1.87-0.77,1.87-1.71v-9.15l0.54-0.63l0.02-0.01l0.47-0.56v0.02l6.99-8.26C193.2,12.52,192.32,10.89,190.76,10.89z"/>
	<polygon id="XMLID_68_" class="st0" points="169.33,34 169.39,33.93 169.33,33.93 	"/>
</g>
</svg>
